<svg xmlns="http://www.w3.org/2000/svg" xmlns:xlink="http://www.w3.org/1999/xlink" width="32" height="32" viewBox="0 0 32 32">
  <defs>
    <style>
      .cls-1 {
        clip-path: url(#clip-TNC_-_FAVICON);
      }

      .cls-2 {
        fill: #fff;
      }
    </style>
    <clipPath id="clip-TNC_-_FAVICON">
      <rect width="32" height="32"/>
    </clipPath>
  </defs>
  <g id="TNC_-_FAVICON" data-name="TNC - FAVICON" class="cls-1">
    <rect class="cls-2" width="32" height="32"/>
    <g id="Layer_1" data-name="Layer 1" transform="translate(1.003 2.997)">
      <g id="Group_1" data-name="Group 1" transform="translate(-0.003 0.003)">
        <path id="Path_1" data-name="Path 1" d="M5.445,273.71l4.677-8.2a.544.544,0,0,1,.473-.274h3.077a.544.544,0,0,1,.473.814l-4.062,7.122a.544.544,0,0,0,.473.814h4.437a.545.545,0,0,0,.472-.273L22.8,260.9a.544.544,0,0,0-.472-.815H7.94a.544.544,0,0,0-.471.272l-4.513,7.811-2.885,5a.544.544,0,0,0,.471.816H4.973A.544.544,0,0,0,5.445,273.71Z" transform="translate(0.003 -247.809)"/>
        <path id="Path_2" data-name="Path 2" d="M368.5,323.634l2.252-3.9a.283.283,0,0,0,0-.283l-1.71-2.963a.283.283,0,0,0-.49,0l-6.162,10.673a.283.283,0,0,0,.245.424h12.324a.282.282,0,0,0,.245-.424l-1.71-2.963a.283.283,0,0,0-.245-.141h-4.5a.282.282,0,0,1-.245-.424Z" transform="translate(-345.241 -301.41)"/>
        <path id="Path_3" data-name="Path 3" d="M188.877,7.106l.3-.523a.235.235,0,0,1,.2-.118h3.261a.236.236,0,0,0,.2-.354l-1.06-1.835a.235.235,0,0,0-.2-.118h-.6a.236.236,0,0,1-.2-.354l.3-.523a.237.237,0,0,0,0-.236L189.4.12a.236.236,0,0,0-.409,0L183,10.5a.236.236,0,0,0,.2.354h8.358a.235.235,0,0,0,.2-.118l1.688-2.923a.236.236,0,0,0-.2-.354h-4.164A.236.236,0,0,1,188.877,7.106Z" transform="translate(-174.325 -0.003)"/>
      </g>
    </g>
  </g>
</svg>
